<?xml version="1.0" encoding="utf-8"?>
<!-- Generator: Adobe Illustrator 15.1.0, SVG Export Plug-In . SVG Version: 6.00 Build 0)  -->
<!DOCTYPE svg PUBLIC "-//W3C//DTD SVG 1.1//EN" "http://www.w3.org/Graphics/SVG/1.1/DTD/svg11.dtd">
<svg version="1.1" id="Calque_1" xmlns="http://www.w3.org/2000/svg" xmlns:xlink="http://www.w3.org/1999/xlink" x="0px" y="0px"
	 width="86.724px" height="62.12px" viewBox="0 0 86.724 62.12" enable-background="new 0 0 86.724 62.12" xml:space="preserve">
<g>
	<path fill="#1D1D1B" d="M34.096,59.971c1.779,0,1.903-1.884,2.316-1.884c0.125,0,0.228,0.093,0.228,0.413
		c0,0.689-1.013,2.62-3.247,2.62c-2.317,0-3.889-2.298-3.889-5.745c0-3.033,1.737-5.377,4.302-5.377c0.724,0,1.738,0.184,2.11,0.436
		c0.29,0.185,0.331,0.254,0.331,1.242c0,1.586-0.041,1.678-0.455,1.678c-0.372,0-0.496-0.162-0.808-0.805
		c-0.744-1.517-0.848-2-1.406-2c-0.972,0-2.172,1.563-2.172,4.274C31.407,57.719,32.565,59.971,34.096,59.971"/>
	<path fill="#1D1D1B" d="M39.689,59.259c0,0.712,0.186,0.966,0.765,1.034c0.353,0.046,0.477,0.161,0.477,0.275
		c0,0.138-0.063,0.275-0.353,0.275c-0.393,0-0.931-0.092-1.778-0.092c-0.91,0-1.552,0.092-1.883,0.092
		c-0.228,0-0.331-0.046-0.331-0.252c0-0.184,0.207-0.275,0.436-0.345c0.806-0.253,0.972-0.299,0.972-1.08v-6.664
		c0-0.621-0.311-0.644-0.724-0.735c-0.229-0.047-0.394-0.069-0.394-0.3c0-0.252,0.146-0.274,0.394-0.344
		c1.613-0.46,2.067-1.126,2.232-1.126c0.125,0,0.188,0.068,0.188,0.32V59.259z M38.882,46.137c0.578,0,0.95,0.598,0.95,1.287
		s-0.372,1.287-0.95,1.287c-0.579,0-0.952-0.598-0.952-1.287S38.303,46.137,38.882,46.137"/>
	<path fill="#1D1D1B" d="M47.19,53.008c0-1.332-0.538-1.861-1.282-1.861c-0.785,0-1.428,0.598-1.778,1.724v6.39
		c0,0.711,0.248,0.896,0.682,1.033c0.414,0.139,0.477,0.206,0.477,0.321c0,0.138-0.063,0.229-0.248,0.229
		c-0.394,0-0.951-0.092-1.801-0.092c-0.661,0-1.303,0.092-1.634,0.092c-0.227,0-0.33-0.045-0.33-0.252
		c0-0.184,0.165-0.275,0.435-0.345c0.558-0.138,0.724-0.299,0.724-1.08v-6.435c0-0.689-0.104-0.758-0.435-0.873
		c-0.289-0.092-0.62,0-0.62-0.253c0-0.322,0.414-0.276,1.262-0.781c1.179-0.713,1.054-0.965,1.323-0.965
		c0.125,0,0.166,0.092,0.166,0.366v1.586h0.041c0.683-0.918,1.24-1.814,2.44-1.814c1.282,0,2.275,0.781,2.275,2.895v6.572
		c0,0.461,0.186,0.736,0.683,0.828c0.413,0.092,0.476,0.184,0.476,0.367c0,0.092-0.104,0.184-0.27,0.184
		c-0.248,0-0.724-0.092-1.777-0.092c-0.497,0-1.015,0.092-1.511,0.092c-0.248,0-0.373-0.068-0.373-0.229
		c0-0.183,0.063-0.229,0.353-0.321c0.621-0.207,0.724-0.322,0.724-0.828V53.008z"/>
	<path fill="#1D1D1B" d="M52.544,55.008c-0.352,0-0.434,0.068-0.434,0.805c0,2.205,0.867,4.158,2.439,4.158
		c2.172,0,2.048-1.838,2.482-1.838c0.166,0,0.228,0.092,0.228,0.275c0,0.574-0.972,2.711-3.289,2.711
		c-2.089,0-3.764-1.906-3.764-5.445c0-2.964,1.489-5.676,3.93-5.676c2.151,0,3.123,2.068,3.123,4.066
		c0,0.782-0.166,0.943-0.621,0.943H52.544z M54.2,50.549c-1.717,0-2.007,2.965-2.007,3.425c0,0.367,0.187,0.482,0.868,0.482
		c1.944,0,2.503-0.3,2.503-1.632C55.564,51.86,55.212,50.549,54.2,50.549 M52.544,48.803l2.441-3.079
		c0.475-0.598,0.724-0.874,1.157-0.874c0.455,0,0.786,0.368,0.786,0.852c0,0.274-0.145,0.574-0.579,0.896l-2.896,2.206H52.544z"/>
	<path fill="#1D1D1B" d="M60.237,59.329c0,0.666,0.186,0.804,0.765,0.965c0.373,0.115,0.435,0.207,0.435,0.322
		c0,0.138-0.104,0.229-0.228,0.229c-0.372,0-1.158-0.092-1.737-0.092c-0.538,0-1.22,0.092-1.655,0.092
		c-0.31,0-0.393-0.046-0.393-0.207c0-0.185,0.062-0.253,0.372-0.345c0.58-0.161,0.745-0.23,0.745-0.873v-6.963
		c0-0.461-0.165-0.645-0.559-0.667c-0.331-0.023-0.414,0-0.414-0.183c0-0.207,0.063-0.185,1.056-0.668
		c1.261-0.619,1.303-1.08,1.529-1.08c0.104,0,0.166,0.047,0.166,0.506v1.012c0,0.115,0.021,0.138,0.063,0.138
		c0.124,0.022,0.951-1.517,2.544-1.517c1.613,0,1.717,1.586,2.027,1.586c0.31,0,0.972-1.586,2.502-1.586
		c1.159,0,2.214,0.896,2.214,2.643v6.733c0,0.481,0.103,0.712,0.662,0.896c0.393,0.139,0.558,0.161,0.558,0.346
		c0,0.184-0.124,0.229-0.269,0.229c-0.414,0-1.199-0.092-1.799-0.092c-0.497,0-1.283,0.092-1.594,0.092
		c-0.228,0-0.331-0.092-0.331-0.207c0-0.229,0.248-0.299,0.394-0.345c0.641-0.207,0.683-0.299,0.683-1.149V52.71
		c0-1.011-0.455-1.563-1.283-1.563c-0.931,0-1.736,0.942-1.736,1.885v5.975c0,0.941,0.103,1.195,0.724,1.311
		c0.393,0.092,0.579,0.16,0.579,0.344c0,0.115-0.063,0.185-0.248,0.185c-0.476,0-1.262-0.092-1.903-0.092
		c-0.393,0-1.22,0.092-1.634,0.092c-0.228,0-0.269-0.092-0.269-0.229c0-0.162,0.103-0.23,0.476-0.322
		c0.289-0.069,0.579-0.207,0.579-0.735v-6.642c0-1.172-0.6-1.77-1.241-1.77c-1.034,0-1.778,0.873-1.778,1.977V59.329z"/>
	<path fill="#1D1D1B" d="M77.366,58.455c0,0.919,0.372,1.195,0.684,1.195c0.434,0,0.496-0.735,0.826-0.735
		c0.124,0,0.187,0.092,0.187,0.276c0,0.758-0.91,1.838-1.799,1.838c-1.324,0-1.47-1.7-1.718-1.7c-0.247,0-0.868,1.792-2.481,1.792
		c-1.076,0-1.737-0.644-1.737-1.999c0-2.527,4.344-4.137,4.344-5.585v-1.976c0-0.598-0.311-1.012-0.869-1.012
		c-0.786,0-1.469,0.735-1.593,1.953c-0.104,1.012-0.517,1.633-1.282,1.633c-0.496,0-0.744-0.3-0.744-0.759
		c0-0.897,1.653-3.378,4.136-3.378c1.614,0,2.048,0.321,2.048,1.563V58.455z M75.67,55.284c0-0.275-0.063-0.322-0.207-0.322
		c-0.27,0-2.173,1.816-2.234,3.424c0,0.713,0.352,1.265,0.931,1.265c0.973,0,1.511-0.827,1.511-2.896V55.284z"/>
</g>
<g>
	<path fill="#1D1D1B" d="M79.409,57.972c0-0.299,0.104-0.437,0.311-0.437c0.186,0,0.311,0.207,0.579,1.057
		c0.373,1.219,0.931,1.977,1.924,1.977c0.951,0,1.531-0.873,1.531-2c0-2.688-4.386-2.572-4.386-5.491
		c0-2.022,1.759-3.079,3.186-3.079c0.724,0,1.572,0.16,1.903,0.322c0.247,0.115,0.269,0.252,0.269,1.631
		c0,0.734-0.062,0.873-0.373,0.873c-0.579,0-0.268-2.275-2.13-2.275c-0.869,0-1.406,0.645-1.406,1.54
		c0,2.413,4.384,2.138,4.384,5.606c0,1.932-1.488,3.425-3.64,3.425c-0.869,0-2.151-0.367-2.151-0.781V57.972z"/>
	<path fill="#E20613" d="M8.717,34.978c0,0-2.558-0.467-5.071,2.179c0,0-2.679,2.482-3.594,6.586c0,0-0.65,3.838,2.64,6.914
		c0,0,4.971,4.024,9.932,0.861c0,0,2.268-1.556,4.444-4.074c0,0,2.497-3.193,3.911-6.552c0,0,1.968-6.304-0.926-9.863
		c0,0-1.77-2.28-4.503-3.4c0,0-2.377-1.048-4.215-1.544c0,0-2.688-0.515-2.047-2.381c0,0,0.511-2.311,2.371-5.06
		c0,0,0.722-0.843,0.85,0.249c0,0,0.262,1.406,0.126,3.662c0,0-0.077,2.275,0.233,2.647c0,0,0.849,1.435,2.921,0.681
		c0,0,3.78-1.865,5.171-2.352c1.392-0.487,5.719-1.973,6.688-2.313c0,0,3.57-1.357,4.584-1.851c0,0,0.949-0.314,1.269-1.829
		c0,0,0.838-4.091-1.07-4.57c0,0-0.946-0.426-2.672,0.378c0,0-2.07,1.184-2.861,1.486c0,0-5.584,2.077-7.129,2.463
		c0,0-2.525,0.793-3.354,1.121c0,0,0.069-3.439-1.192-4.766c0,0-2.915-3.258-6.992-0.351c0,0-1.965,1.223-3.543,4.644
		c0,0-1.48,2.857-1.8,5.423c0,0-0.684,3.117,0.6,4.653c0,0,0.946,1.646,4.623,2.96c0,0,2.457,0.924,3.038,1.206
		c0,0,2.51,0.766,3.045,3.72c0,0,0.7,1.979-0.771,5.306c0,0-0.962,2.78-3.49,4.915c0,0-1.172,0.947-2.521-0.438
		c0,0-0.931-0.947-0.078-2.897c0,0,0.371-0.88,1.392-1.685c0,0,1.021,0.323,2.085-1.68C10.809,39.426,12.217,35.517,8.717,34.978"/>
	<path fill="#E20613" d="M21.318,23.144c0,0-0.062,13.034-0.059,18.745c0,0,0.121,6.945,0.148,10.371c0,0,0.03,4.203-0.047,5.863
		c0,0-0.045,2.25,0.26,2.688c0,0,0.192,0.563,1.663,1.161c0,0,1.869,0.796,3.862-1.325c0,0,0.719-0.862,0.223-2.679
		c0,0-0.187-4.166-0.069-7.678c0,0,0.038-5.836-0.066-8.402c0,0,0.034-5.227,0.013-7.078c-0.021-1.851-0.021-10.371-0.021-10.371
		s0.004-2.817-0.2-3.352L21.318,23.144z"/>
</g>
<g>
	<path fill="#E20613" d="M46.191,41.796c0,0-0.204,0.153-0.332-0.313c0,0-0.661-2.677-0.893-7.056c0,0-0.235-6.28-0.191-7.428
		c0,0,0.102-1.842-0.234-2.569c0,0-0.237-1.298-2.104-0.638c0,0-1.238,0.381-2.128,0.753c0,0-0.854,0.271-1.213,1.211
		c0,0-2.048,4.783-3.04,7.28c0,0-1.485,3.993-2.095,4.862c0,0-1.151-2.224-1.977-7.063c0,0-0.527-2.928-0.675-5.158
		c0,0-0.019-1.613-1.028-1.807c0,0-2.24-0.675-3.382,0.568c-1.143,1.243-1.079,4.887-0.887,5.066
		c0.19,0.178,1.061,6.051,1.061,6.051s0.643,4.82,2.27,7.41c0,0,0.326,0.774,1.689,1.534c0,0,2.797,1.658,4.591-0.249
		c0,0,1.478-1.502,3.912-6.599c0,0,0.311,1.09,0.447,2.709c0,0,0.348,3.836,2.104,6.346c0,0,0.719,1.318,2.396,1.219
		c0,0,2.732-0.006,4.419-0.921c0,0,1.573-0.761,4.173-2.978c0,0,7.26-6.301,9.984-12.025c1.845-3.878,2.915-6.362,0.872-9.384
		c0,0-1.408-3.198-7.215-4.61c0,0-3.362-1.193-8.974-0.137c0,0-2.307,0.369-3.985,0.803c0,0-0.747,0.106-1.202,0.876
		c0,0-0.76,1.462-0.278,3.137c0,0,0.674,1.633,1.695,2.123c0,0,0.626,0.072,1.955-0.123c0,0,5.392-0.767,8.347-0.578
		c0,0,2.682,0.142,4.446,1.337c0,0,1.232,0.871,0.669,1.978c0,0-1.299,3.567-6.948,9.249C52.44,36.673,47.89,41.461,46.191,41.796"
		/>
	<path fill="#E20613" d="M47.397,24.257c0,0-0.112,0.885,0.017,2.865c0,0,0.309,7.667,0.328,10.034c0,0,0.172,5.326,0.009,6.57
		l5.902-7.789c0,0-0.479-4.595-0.45-7.626c0,0,0.106-3.756-0.281-4.48L47.397,24.257z"/>
</g>
<g>
	<path fill="#E20613" d="M63.168,19.3c0,0-0.286-1.884,0.799-2.358c0,0,2.563-1.5,4.115-0.497c0,0,0.57,0.237,0.638,2.343
		c0,0,0.094,8.437-0.162,13.001c0,0,0.004,11.405-0.086,12.674c0,0,0.121,3.285-1.902,3.529c0,0-1.666,0.306-3.089,0.084
		c0,0-0.454,0.054-0.516-1.181c0,0-0.124-3.87-0.079-5.914c0,0-0.009-8.331,0.15-10.342C63.037,30.64,63.205,21.046,63.168,19.3"/>
	<path fill="#E20613" d="M85.222,27.712c-2.807-3.95-5.061-4.798-5.061-4.798c-4.546-2.397-8.644,0.464-8.644,0.464
		c-2.596,1.482-3.343,3.744-3.343,3.744l-0.256,3.008l0.216,9.972c3.344,5.471,8.012,5.166,8.012,5.166
		c3.247,0.295,7.009-3.16,7.009-3.16c2.916-2.77,3.376-6.748,3.376-6.748C87.366,30.568,85.222,27.712,85.222,27.712 M79.16,38.147
		c0,0-1.99,1.918-4.891,0.383c0,0-2.225-1.356-2.388-4.75c0,0-0.326-1.919,0.952-3.854c0,0,0.568-0.898,1.585-1.175
		c0,0,2.259-0.898,3.298-0.309c0,0,2.901,0.986,3.511,4.433C81.227,32.875,81.686,36.207,79.16,38.147"/>
	<path fill="#E20613" d="M62.867,8.02c0,0,1.181-2.276,3.606-1.884c2.426,0.393,4.126,2.956,3.085,5.259
		c-1.041,2.302-3.517,2.724-5.136,1.984C62.802,12.638,61.717,10.358,62.867,8.02"/>
	<path fill="#E20613" d="M59.15,0.185c0,0,2.862-1.073,3.8,1.956c0,0,0.636,2.584-1.862,3.498c0,0-2.17,0.634-3.292-1.237
		C56.674,2.532,57.93,0.681,59.15,0.185"/>
</g>
<g>
	<path fill="#E20613" d="M52.384,3.952c0,0,1.228-0.191,1.344,1.013c0,0,0.094,0.989-0.874,1.193c0,0-0.728,0.175-1.172-0.497
		C51.682,5.661,51.116,4.49,52.384,3.952"/>
	<path fill="#E20613" d="M57.508,8.569c0,0,1.362,0.2,1.615,1.587c0,0,0.356,1.646-1.372,2.25c0,0-1.165,0.389-2.005-0.647
		c0,0-0.883-0.893-0.104-2.374C55.642,9.385,56.342,8.447,57.508,8.569"/>
	<path fill="#E20613" d="M69.65,1.131c0,0,0.663-0.59,1.424-0.26c0,0,0.91,0.318,0.847,1.356c0,0,0.021,0.935-0.979,1.263
		c0,0-0.806,0.287-1.478-0.533C69.464,2.958,68.859,1.998,69.65,1.131"/>
	<path fill="#E20613" d="M76.087,3.36c0,0,1.917-0.542,2.77,1.102c0,0,0.868,1.721-0.57,3.039c0,0-1.489,1.129-3.172-0.154
		c0,0-0.981-0.698-0.556-2.539C74.559,4.808,74.934,3.71,76.087,3.36"/>
	<path fill="#E20613" d="M74.213,11.141c0,0,1.532-0.324,1.907,1.284c0,0,0.314,1.16-0.878,1.814c0,0-1.198,0.544-1.957-0.475
		c0,0-0.606-0.783-0.141-1.789C73.145,11.975,73.411,11.388,74.213,11.141"/>
</g>
</svg>
